# xmcd
# 
# Track frame offsets:
#     150
#     16758
#     36251
#     59426
#     83716
#     101336
#     120361
#     137588
#     154742
#     178196
#     197913
#     211661
#     235226
# 
# Disc length: 3348
# 
# Revision: 0
# Processed by: cddbd v1.5.2PL0 Copyright (c) Steve Scherf et al.
# Submitted via: fre:ac v1.0.17
# 
DISCID=a20d120d
DTITLE=Alan Gerber - The Boogie Man
DYEAR=1999
DGENRE=Blues
TTITLE0=Fall for Me
TTITLE1=Keys to Paradise
TTITLE2=My Situation
TTITLE3=Boogie Man
TTITLE4=Peace of Mind
TTITLE5=Bye Bye Baby Blues
TTITLE6=Take Me In
TTITLE7=Y'all I Need
TTITLE8=Glad Dead
TTITLE9=Work to Do
TTITLE10=Movin' In
TTITLE11=Sweat Hearted Annie
TTITLE12=Goodnight Irene
EXTD=
EXTT0=
EXTT1=
EXTT2=
EXTT3=
EXTT4=
EXTT5=
EXTT6=
EXTT7=
EXTT8=
EXTT9=
EXTT10=
EXTT11=
EXTT12=
PLAYORDER=
